<svg width="100" height="100" viewBox="0 0 100 100" fill="none" xmlns="http://www.w3.org/2000/svg">
<path fill-rule="evenodd" clip-rule="evenodd" d="M100 50C100 77.6142 77.6142 100 50 100C22.3858 100 0 77.6142 0 50C0 22.3858 22.3858 0 50 0C77.6142 0 100 22.3858 100 50ZM55 27.2727C55 24.5113 52.7614 22.2727 50 22.2727C47.2386 22.2727 45 24.5113 45 27.2727V45H27.2727C24.5113 45 22.2727 47.2386 22.2727 50C22.2727 52.7614 24.5113 55 27.2727 55H45V72.7272C45 75.4887 47.2386 77.7272 50 77.7272C52.7614 77.7272 55 75.4887 55 72.7272V55H72.7272C75.4887 55 77.7272 52.7614 77.7272 50C77.7272 47.2386 75.4887 45 72.7272 45H55V27.2727Z" fill="#3F7EFD"/>
</svg>
